<svg xmlns="http://www.w3.org/2000/svg" width="700" height="420" viewBox="0 0 700 420" role="img" aria-label="Architecture modulaire Kore">
  <defs>
    <radialGradient id="hub-glow" cx="50%" cy="50%" r="50%">
      <stop offset="0%" stop-color="#c9a227" stop-opacity="0.25"/>
      <stop offset="100%" stop-color="#2b6cb0" stop-opacity="0"/>
    </radialGradient>
  </defs>
  <rect width="700" height="420" rx="16" fill="#1e2433" stroke="#3d4559" stroke-width="1"/>
  <!-- Hub -->
  <circle cx="350" cy="210" r="90" fill="url(#hub-glow)"/>
  <circle cx="350" cy="210" r="64" fill="#252b3b" stroke="#c9a227" stroke-width="2"/>
  <g transform="translate(318, 178) scale(1)">
    <polygon points="32,4 58,18 58,46 32,60 6,46 6,18" fill="#1e3a5f" stroke="#c9a227" stroke-width="2"/>
    <path d="M22 18 L22 46 L28 46 L28 32 L38 46 L46 46 L34 30 L44 18 L36 18 L28 28 L28 18 Z" fill="#c9a227"/>
  </g>
  <text x="350" y="268" text-anchor="middle" font-family="DM Sans,system-ui,sans-serif" font-size="14" font-weight="700" letter-spacing="0.08em" fill="#e8eaed">KORE</text>
  <!-- Modules -->
  <g>
    <rect x="60" y="60" width="140" height="64" rx="10" fill="#252b3b" stroke="#2b6cb0" stroke-width="1.5"/>
    <text x="130" y="88" text-anchor="middle" font-family="DM Sans,system-ui,sans-serif" font-size="13" font-weight="600" fill="#e8eaed">CRA</text>
    <text x="130" y="108" text-anchor="middle" font-family="DM Sans,system-ui,sans-serif" font-size="10" fill="#9ca3af">Timesheet</text>
    <line x1="200" y1="92" x2="286" y2="180" stroke="#3d4559" stroke-width="1.5" stroke-dasharray="4 3"/>
  </g>
  <g>
    <rect x="500" y="60" width="140" height="64" rx="10" fill="#252b3b" stroke="#2b6cb0" stroke-width="1.5"/>
    <text x="570" y="88" text-anchor="middle" font-family="DM Sans,system-ui,sans-serif" font-size="13" font-weight="600" fill="#e8eaed">TMA</text>
    <text x="570" y="108" text-anchor="middle" font-family="DM Sans,system-ui,sans-serif" font-size="10" fill="#9ca3af">Support</text>
    <line x1="500" y1="92" x2="414" y2="180" stroke="#3d4559" stroke-width="1.5" stroke-dasharray="4 3"/>
  </g>
  <g>
    <rect x="60" y="296" width="140" height="64" rx="10" fill="#252b3b" stroke="#c9a227" stroke-width="1.5"/>
    <text x="130" y="324" text-anchor="middle" font-family="DM Sans,system-ui,sans-serif" font-size="13" font-weight="600" fill="#e8eaed">Budget UO</text>
    <text x="130" y="344" text-anchor="middle" font-family="DM Sans,system-ui,sans-serif" font-size="10" fill="#9ca3af">Pilotage</text>
    <line x1="200" y1="328" x2="286" y2="240" stroke="#3d4559" stroke-width="1.5" stroke-dasharray="4 3"/>
  </g>
  <g>
    <rect x="500" y="296" width="140" height="64" rx="10" fill="#252b3b" stroke="#c9a227" stroke-width="1.5"/>
    <text x="570" y="324" text-anchor="middle" font-family="DM Sans,system-ui,sans-serif" font-size="13" font-weight="600" fill="#e8eaed">Cong&#233;s</text>
    <text x="570" y="344" text-anchor="middle" font-family="DM Sans,system-ui,sans-serif" font-size="10" fill="#9ca3af">Absences</text>
    <line x1="500" y1="328" x2="414" y2="240" stroke="#3d4559" stroke-width="1.5" stroke-dasharray="4 3"/>
  </g>
  <g>
    <rect x="280" y="16" width="140" height="52" rx="10" fill="#252b3b" stroke="#4ade80" stroke-width="1.5"/>
    <text x="350" y="40" text-anchor="middle" font-family="DM Sans,system-ui,sans-serif" font-size="12" font-weight="600" fill="#4ade80">Org &amp; Branding</text>
    <text x="350" y="56" text-anchor="middle" font-family="DM Sans,system-ui,sans-serif" font-size="10" fill="#9ca3af">Multi-tenant</text>
    <line x1="350" y1="68" x2="350" y2="146" stroke="#3d4559" stroke-width="1.5" stroke-dasharray="4 3"/>
  </g>
  <g>
    <rect x="280" y="352" width="140" height="52" rx="10" fill="#252b3b" stroke="#4ade80" stroke-width="1.5"/>
    <text x="350" y="376" text-anchor="middle" font-family="DM Sans,system-ui,sans-serif" font-size="12" font-weight="600" fill="#4ade80">Billing EU</text>
    <text x="350" y="392" text-anchor="middle" font-family="DM Sans,system-ui,sans-serif" font-size="10" fill="#9ca3af">EN 16931</text>
    <line x1="350" y1="352" x2="350" y2="274" stroke="#3d4559" stroke-width="1.5" stroke-dasharray="4 3"/>
  </g>
</svg>
