<svg xmlns="http://www.w3.org/2000/svg" viewBox="0 0 900 220" role="img" aria-label="Flux Kore">
  <defs>
    <linearGradient id="wf-bg" x1="0" y1="0" x2="900" y2="0">
      <stop offset="0%" stop-color="#2b6cb0" stop-opacity="0.08"/>
      <stop offset="50%" stop-color="#c9a227" stop-opacity="0.12"/>
      <stop offset="100%" stop-color="#2b6cb0" stop-opacity="0.08"/>
    </linearGradient>
    <marker id="arrow" markerWidth="8" markerHeight="8" refX="6" refY="4" orient="auto">
      <path d="M0,0 L8,4 L0,8 Z" fill="#c9a227"/>
    </marker>
  </defs>
  <rect width="900" height="220" rx="16" fill="url(#wf-bg)" stroke="#3d4559" stroke-width="1"/>
  <!-- Step 1 -->
  <rect x="40" y="50" width="220" height="120" rx="12" fill="#252b3b" stroke="#2b6cb0" stroke-width="2"/>
  <circle cx="80" cy="85" r="22" fill="#1e3a5f" stroke="#c9a227" stroke-width="2"/>
  <text x="80" y="92" text-anchor="middle" font-family="DM Sans,system-ui,sans-serif" font-size="18" font-weight="700" fill="#c9a227">1</text>
  <text x="120" y="82" font-family="DM Sans,system-ui,sans-serif" font-size="16" font-weight="700" fill="#e8eaed">CRA</text>
  <text x="120" y="104" font-family="DM Sans,system-ui,sans-serif" font-size="12" fill="#9ca3af">Saisie &amp; validation</text>
  <text x="60" y="140" font-family="DM Sans,system-ui,sans-serif" font-size="11" fill="#9ca3af">Consultant Æ Manager Æ PDF</text>
  <!-- Arrow 1 -->
  <line x1="270" y1="110" x2="320" y2="110" stroke="#c9a227" stroke-width="2" marker-end="url(#arrow)"/>
  <!-- Step 2 -->
  <rect x="330" y="50" width="220" height="120" rx="12" fill="#252b3b" stroke="#c9a227" stroke-width="2"/>
  <circle cx="370" cy="85" r="22" fill="#1e3a5f" stroke="#c9a227" stroke-width="2"/>
  <text x="370" y="92" text-anchor="middle" font-family="DM Sans,system-ui,sans-serif" font-size="18" font-weight="700" fill="#c9a227">2</text>
  <text x="410" y="82" font-family="DM Sans,system-ui,sans-serif" font-size="16" font-weight="700" fill="#e8eaed">TMA / UO</text>
  <text x="410" y="104" font-family="DM Sans,system-ui,sans-serif" font-size="12" fill="#9ca3af">Pilotage &amp; alertes</text>
  <text x="350" y="140" font-family="DM Sans,system-ui,sans-serif" font-size="11" fill="#9ca3af">Budget Ę Releases Ę Suivi</text>
  <!-- Arrow 2 -->
  <line x1="560" y1="110" x2="610" y2="110" stroke="#c9a227" stroke-width="2" marker-end="url(#arrow)"/>
  <!-- Step 3 -->
  <rect x="620" y="50" width="240" height="120" rx="12" fill="#252b3b" stroke="#4ade80" stroke-width="2"/>
  <circle cx="660" cy="85" r="22" fill="#1e3a5f" stroke="#c9a227" stroke-width="2"/>
  <text x="660" y="92" text-anchor="middle" font-family="DM Sans,system-ui,sans-serif" font-size="18" font-weight="700" fill="#c9a227">3</text>
  <text x="700" y="82" font-family="DM Sans,system-ui,sans-serif" font-size="16" font-weight="700" fill="#e8eaed">Facturation</text>
  <text x="700" y="104" font-family="DM Sans,system-ui,sans-serif" font-size="12" fill="#9ca3af">EN 16931 Ę Archivage</text>
  <text x="640" y="140" font-family="DM Sans,system-ui,sans-serif" font-size="11" fill="#9ca3af">Conformitķ EU native</text>
  <!-- Kore emblem center watermark -->
  <g transform="translate(430, 175) scale(0.35)" opacity="0.35">
    <polygon points="32,4 58,18 58,46 32,60 6,46 6,18" fill="#1e3a5f" stroke="#c9a227" stroke-width="2"/>
    <path d="M22 18 L22 46 L28 46 L28 32 L38 46 L46 46 L34 30 L44 18 L36 18 L28 28 L28 18 Z" fill="#c9a227"/>
  </g>
</svg>
